<svg width="44" height="46" viewBox="0 0 44 46" fill="none" xmlns="http://www.w3.org/2000/svg">
<path d="M0.000259188 14.0555C-0.0634549 3.31501 11.6322 -3.46615 21.0525 1.84942L36.8868 10.7842C46.307 16.0998 46.3867 29.5254 37.0301 34.9503L21.303 44.0688C11.9464 49.4937 0.171068 42.8493 0.107354 32.1088L0.000259188 14.0555Z" fill="#A100FF"/>
<path d="M28.5962 27.6282C29.0978 31.3321 26.2836 31.7444 22.459 32.399C18.6258 33.0537 15.2333 33.7039 14.7343 30.0015C14.2301 26.2902 16.9256 22.7587 20.7555 22.1018C24.5814 21.4487 28.0946 23.9184 28.5962 27.6282Z" fill="white"/>
<path d="M20.9723 20.7497C22.2858 20.5251 23.0879 18.406 22.7639 16.0167C22.4398 13.6273 21.1124 11.8725 19.7989 12.0972C18.4854 12.3219 17.6833 14.4409 18.0073 16.8303C18.3314 19.2196 19.6588 20.9744 20.9723 20.7497Z" fill="white"/>
<path d="M29.0879 18.087C28.4644 20.1002 27.1143 21.4058 26.0678 20.9986C25.024 20.5928 24.6824 18.6275 25.3046 16.6143C25.9269 14.5967 27.2782 13.2933 28.3234 13.6976C29.3672 14.1048 29.7089 16.0687 29.0879 18.087Z" fill="white"/>
<path d="M15.612 22.9302C16.5546 22.2823 16.5149 20.2822 15.5234 18.4629C14.5318 16.6436 12.9638 15.6941 12.0211 16.3421C11.0785 16.9901 11.1182 18.9902 12.1098 20.8094C13.1014 22.6287 14.6694 23.5782 15.612 22.9302Z" fill="white"/>
<path d="M12.8846 24.4993C14.0458 25.665 14.4989 27.2246 13.897 27.9852C13.2938 28.7422 11.8611 28.4138 10.7005 27.2503C9.53733 26.0847 9.08491 24.5258 9.68683 23.7666C10.2914 23.0074 11.7234 23.3351 12.8846 24.4993Z" fill="white"/>
</svg>
